<svg width="160" height="40" viewBox="0 0 160 40" fill="none" xmlns="http://www.w3.org/2000/svg">
<path d="M53.4283 16.2727V18.0909H48.1726V16.2727H53.4283ZM49.3658 14.1818H51.7862V22.3182C51.7862 22.5417 51.8203 22.7159 51.8885 22.8409C51.9567 22.9621 52.0514 23.0473 52.1726 23.0966C52.2976 23.1458 52.4415 23.1705 52.6044 23.1705C52.718 23.1705 52.8317 23.161 52.9453 23.142C53.0589 23.1193 53.1461 23.1023 53.2067 23.0909L53.5874 24.892C53.4661 24.9299 53.2957 24.9735 53.076 25.0227C52.8563 25.0758 52.5893 25.108 52.2749 25.1193C51.6915 25.142 51.1802 25.0644 50.7408 24.8864C50.3052 24.7083 49.9661 24.4318 49.7237 24.0568C49.4813 23.6818 49.362 23.2083 49.3658 22.6364V14.1818ZM58.8885 25.1705C57.9908 25.1705 57.218 24.9886 56.5703 24.625C55.9264 24.2576 55.4302 23.7386 55.0817 23.0682C54.7332 22.3939 54.5589 21.5966 54.5589 20.6761C54.5589 19.7784 54.7332 18.9905 55.0817 18.3125C55.4302 17.6345 55.9207 17.1061 56.5533 16.7273C57.1896 16.3485 57.9358 16.1591 58.7919 16.1591C59.3677 16.1591 59.9036 16.2519 60.3999 16.4375C60.8999 16.6193 61.3355 16.8939 61.7067 17.2614C62.0817 17.6288 62.3733 18.0909 62.5817 18.6477C62.79 19.2008 62.8942 19.8485 62.8942 20.5909V21.2557H55.5249V19.7557H60.6158C60.6158 19.4072 60.54 19.0985 60.3885 18.8295C60.237 18.5606 60.0268 18.3504 59.7578 18.1989C59.4927 18.0436 59.1839 17.9659 58.8317 17.9659C58.4643 17.9659 58.1385 18.0511 57.8544 18.2216C57.5741 18.3883 57.3544 18.6136 57.1953 18.8977C57.0362 19.178 56.9548 19.4905 56.951 19.8352V21.2614C56.951 21.6932 57.0305 22.0663 57.1896 22.3807C57.3525 22.6951 57.5817 22.9375 57.8771 23.108C58.1726 23.2784 58.523 23.3636 58.9283 23.3636C59.1972 23.3636 59.4434 23.3258 59.6669 23.25C59.8904 23.1742 60.0817 23.0606 60.2408 22.9091C60.3999 22.7576 60.5211 22.572 60.6044 22.3523L62.843 22.5C62.7294 23.0379 62.4964 23.5076 62.1442 23.9091C61.7957 24.3068 61.3449 24.6174 60.7919 24.8409C60.2427 25.0606 59.6082 25.1705 58.8885 25.1705ZM69.1158 16.2727V18.0909H63.8601V16.2727H69.1158ZM65.0533 14.1818H67.4737V22.3182C67.4737 22.5417 67.5078 22.7159 67.576 22.8409C67.6442 22.9621 67.7389 23.0473 67.8601 23.0966C67.9851 23.1458 68.129 23.1705 68.2919 23.1705C68.4055 23.1705 68.5192 23.161 68.6328 23.142C68.7464 23.1193 68.8336 23.1023 68.8942 23.0909L69.2749 24.892C69.1536 24.9299 68.9832 24.9735 68.7635 25.0227C68.5438 25.0758 68.2768 25.108 67.9624 25.1193C67.379 25.142 66.8677 25.0644 66.4283 24.8864C65.9927 24.7083 65.6536 24.4318 65.4112 24.0568C65.1688 23.6818 65.0495 23.2083 65.0533 22.6364V14.1818ZM73.3004 19.9545V25H70.88V13.3636H73.2322V17.8125H73.3345C73.5315 17.2973 73.8497 16.8939 74.2891 16.6023C74.7285 16.3068 75.2796 16.1591 75.9425 16.1591C76.5485 16.1591 77.0769 16.2917 77.5277 16.5568C77.9822 16.8182 78.3345 17.1951 78.5845 17.6875C78.8383 18.1761 78.9633 18.7614 78.9595 19.4432V25H76.5391V19.875C76.5429 19.3371 76.4065 18.9186 76.13 18.6193C75.8572 18.3201 75.4747 18.1705 74.9822 18.1705C74.6527 18.1705 74.361 18.2405 74.1072 18.3807C73.8572 18.5208 73.6603 18.7254 73.5163 18.9943C73.3762 19.2595 73.3042 19.5795 73.3004 19.9545ZM84.8416 25.1705C83.9439 25.1705 83.1712 24.9886 82.5234 24.625C81.8795 24.2576 81.3833 23.7386 81.0348 23.0682C80.6863 22.3939 80.5121 21.5966 80.5121 20.6761C80.5121 19.7784 80.6863 18.9905 81.0348 18.3125C81.3833 17.6345 81.8738 17.1061 82.5064 16.7273C83.1428 16.3485 83.889 16.1591 84.745 16.1591C85.3208 16.1591 85.8568 16.2519 86.353 16.4375C86.853 16.6193 87.2886 16.8939 87.6598 17.2614C88.0348 17.6288 88.3265 18.0909 88.5348 18.6477C88.7431 19.2008 88.8473 19.8485 88.8473 20.5909V21.2557H81.478V19.7557H86.5689C86.5689 19.4072 86.4931 19.0985 86.3416 18.8295C86.1901 18.5606 85.9799 18.3504 85.7109 18.1989C85.4458 18.0436 85.1371 17.9659 84.7848 17.9659C84.4174 17.9659 84.0916 18.0511 83.8075 18.2216C83.5272 18.3883 83.3075 18.6136 83.1484 18.8977C82.9893 19.178 82.9079 19.4905 82.9041 19.8352V21.2614C82.9041 21.6932 82.9837 22.0663 83.1428 22.3807C83.3056 22.6951 83.5348 22.9375 83.8303 23.108C84.1257 23.2784 84.4761 23.3636 84.8814 23.3636C85.1503 23.3636 85.3965 23.3258 85.62 23.25C85.8435 23.1742 86.0348 23.0606 86.1939 22.9091C86.353 22.7576 86.4742 22.572 86.5575 22.3523L88.7962 22.5C88.6825 23.0379 88.4496 23.5076 88.0973 23.9091C87.7488 24.3068 87.2981 24.6174 86.745 24.8409C86.1958 25.0606 85.5613 25.1705 84.8416 25.1705ZM96.0234 21.2841V16.2727H98.4439V25H96.12V23.4148H96.0291C95.8321 23.9261 95.5045 24.3371 95.0462 24.6477C94.5916 24.9583 94.0367 25.1136 93.3814 25.1136C92.7981 25.1136 92.2848 24.9811 91.8416 24.7159C91.3984 24.4508 91.0518 24.0739 90.8018 23.5852C90.5556 23.0966 90.4306 22.5114 90.4268 21.8295V16.2727H92.8473V21.3977C92.8511 21.9129 92.9893 22.3201 93.2621 22.6193C93.5348 22.9186 93.9003 23.0682 94.3587 23.0682C94.6503 23.0682 94.9231 23.0019 95.1768 22.8693C95.4306 22.733 95.6352 22.5322 95.7905 22.267C95.9496 22.0019 96.0272 21.6742 96.0234 21.2841ZM104.083 25V16.2727H106.39V17.8125H106.492C106.674 17.3011 106.977 16.8977 107.401 16.6023C107.826 16.3068 108.333 16.1591 108.924 16.1591C109.522 16.1591 110.032 16.3087 110.452 16.608C110.873 16.9034 111.153 17.3049 111.293 17.8125H111.384C111.562 17.3125 111.884 16.9129 112.35 16.6136C112.82 16.3106 113.375 16.1591 114.015 16.1591C114.829 16.1591 115.49 16.4186 115.998 16.9375C116.509 17.4527 116.765 18.1837 116.765 19.1307V25H114.35V19.608C114.35 19.1231 114.221 18.7595 113.964 18.517C113.706 18.2746 113.384 18.1534 112.998 18.1534C112.558 18.1534 112.216 18.2936 111.969 18.5739C111.723 18.8504 111.6 19.2159 111.6 19.6705V25H109.254V19.5568C109.254 19.1288 109.13 18.7879 108.884 18.5341C108.642 18.2803 108.322 18.1534 107.924 18.1534C107.655 18.1534 107.413 18.2216 107.197 18.358C106.985 18.4905 106.816 18.678 106.691 18.9205C106.566 19.1591 106.504 19.4394 106.504 19.7614V25H104.083ZM122.62 25.1705C121.737 25.1705 120.974 24.983 120.33 24.608C119.69 24.2292 119.196 23.7027 118.847 23.0284C118.499 22.3504 118.325 21.5644 118.325 20.6705C118.325 19.7689 118.499 18.9811 118.847 18.3068C119.196 17.6288 119.69 17.1023 120.33 16.7273C120.974 16.3485 121.737 16.1591 122.62 16.1591C123.503 16.1591 124.264 16.3485 124.904 16.7273C125.548 17.1023 126.044 17.6288 126.393 18.3068C126.741 18.9811 126.915 19.7689 126.915 20.6705C126.915 21.5644 126.741 22.3504 126.393 23.0284C126.044 23.7027 125.548 24.2292 124.904 24.608C124.264 24.983 123.503 25.1705 122.62 25.1705ZM122.631 23.2955C123.033 23.2955 123.368 23.1818 123.637 22.9545C123.906 22.7235 124.109 22.4091 124.245 22.0114C124.385 21.6136 124.455 21.161 124.455 20.6534C124.455 20.1458 124.385 19.6932 124.245 19.2955C124.109 18.8977 123.906 18.5833 123.637 18.3523C123.368 18.1212 123.033 18.0057 122.631 18.0057C122.226 18.0057 121.885 18.1212 121.609 18.3523C121.336 18.5833 121.129 18.8977 120.989 19.2955C120.853 19.6932 120.785 20.1458 120.785 20.6534C120.785 21.161 120.853 21.6136 120.989 22.0114C121.129 22.4091 121.336 22.7235 121.609 22.9545C121.885 23.1818 122.226 23.2955 122.631 23.2955ZM130.91 19.9545V25H128.489V16.2727H130.796V17.8125H130.898C131.092 17.3049 131.415 16.9034 131.87 16.608C132.325 16.3087 132.876 16.1591 133.523 16.1591C134.129 16.1591 134.658 16.2917 135.109 16.5568C135.559 16.822 135.91 17.2008 136.16 17.6932C136.41 18.1818 136.535 18.7652 136.535 19.4432V25H134.114V19.875C134.118 19.3409 133.982 18.9242 133.705 18.625C133.429 18.322 133.048 18.1705 132.563 18.1705C132.237 18.1705 131.95 18.2405 131.7 18.3807C131.453 18.5208 131.26 18.7254 131.12 18.9943C130.984 19.2595 130.914 19.5795 130.91 19.9545ZM142.42 25.1705C141.522 25.1705 140.749 24.9886 140.102 24.625C139.458 24.2576 138.961 23.7386 138.613 23.0682C138.264 22.3939 138.09 21.5966 138.09 20.6761C138.09 19.7784 138.264 18.9905 138.613 18.3125C138.961 17.6345 139.452 17.1061 140.085 16.7273C140.721 16.3485 141.467 16.1591 142.323 16.1591C142.899 16.1591 143.435 16.2519 143.931 16.4375C144.431 16.6193 144.867 16.8939 145.238 17.2614C145.613 17.6288 145.905 18.0909 146.113 18.6477C146.321 19.2008 146.425 19.8485 146.425 20.5909V21.2557H139.056V19.7557H144.147C144.147 19.4072 144.071 19.0985 143.92 18.8295C143.768 18.5606 143.558 18.3504 143.289 18.1989C143.024 18.0436 142.715 17.9659 142.363 17.9659C141.996 17.9659 141.67 18.0511 141.386 18.2216C141.105 18.3883 140.886 18.6136 140.727 18.8977C140.567 19.178 140.486 19.4905 140.482 19.8352V21.2614C140.482 21.6932 140.562 22.0663 140.721 22.3807C140.884 22.6951 141.113 22.9375 141.408 23.108C141.704 23.2784 142.054 23.3636 142.46 23.3636C142.728 23.3636 142.975 23.3258 143.198 23.25C143.422 23.1742 143.613 23.0606 143.772 22.9091C143.931 22.7576 144.052 22.572 144.136 22.3523L146.374 22.5C146.261 23.0379 146.028 23.5076 145.675 23.9091C145.327 24.3068 144.876 24.6174 144.323 24.8409C143.774 25.0606 143.139 25.1705 142.42 25.1705ZM149.265 28.2727C148.958 28.2727 148.67 28.2481 148.401 28.1989C148.136 28.1534 147.916 28.0947 147.742 28.0227L148.288 26.2159C148.572 26.303 148.827 26.3504 149.055 26.358C149.286 26.3655 149.485 26.3125 149.651 26.1989C149.822 26.0852 149.96 25.892 150.066 25.6193L150.208 25.25L147.077 16.2727H149.623L151.43 22.6818H151.521L153.344 16.2727H155.907L152.515 25.9432C152.352 26.4129 152.13 26.822 151.85 27.1705C151.574 27.5227 151.223 27.7936 150.799 27.983C150.375 28.1761 149.863 28.2727 149.265 28.2727Z" fill="white"/>
<path d="M34.1422 5.85781C30.3647 2.08031 25.3422 0 20 0C14.6578 0 9.63531 2.08031 5.85781 5.85781C2.08031 9.63531 0 14.6578 0 20C0 25.3422 2.08039 30.3646 5.85781 34.1422C9.63523 37.9198 14.6578 40 20 40C25.3422 40 30.3647 37.9197 34.1422 34.1422C37.9197 30.3647 40 25.3422 40 20C40 14.6578 37.9196 9.63539 34.1422 5.85781Z" fill="#33CC95"/>
<g clip-path="url(#clip0_1_4)">
<path d="M20.5714 8V33.1429" stroke="white" stroke-width="2" stroke-linecap="round" stroke-linejoin="round"/>
<path d="M26.2857 12.5714H17.7143C16.6534 12.5714 15.636 12.9929 14.8859 13.743C14.1357 14.4931 13.7143 15.5106 13.7143 16.5714C13.7143 17.6323 14.1357 18.6497 14.8859 19.3999C15.636 20.15 16.6534 20.5714 17.7143 20.5714H23.4286C24.4894 20.5714 25.5068 20.9929 26.257 21.743C27.0071 22.4931 27.4286 23.5106 27.4286 24.5714C27.4286 25.6323 27.0071 26.6497 26.257 27.3999C25.5068 28.15 24.4894 28.5714 23.4286 28.5714H13.7143" stroke="white" stroke-width="2" stroke-linecap="round" stroke-linejoin="round"/>
</g>
<defs>
<clipPath id="clip0_1_4">
<rect width="27.4286" height="27.4286" fill="white" transform="translate(6.85714 6.85714)"/>
</clipPath>
</defs>
</svg>
